<svg width="51" height="53" viewBox="0 0 51 53" fill="none" xmlns="http://www.w3.org/2000/svg">
    <path
        d="M23.6155 36.5834C30.2218 35.3412 38.6851 32.7511 45.0606 36.195C47.8638 37.716 47.309 40.8464 45.6448 42.2398C38.1527 48.5164 25.5437 44.1309 16.7758 43.5875C15.4843 46.4248 14.3304 49.3856 12.8813 52.1459C12.0424 53.7369 9.66876 52.2341 8.44764 51.6652C8.42661 48.365 13.3212 44.3982 11.3494 41.4993C8.7202 37.5869 -4.78416 23.2239 1.78081 18.4302C8.97759 13.1766 12.5251 28.6774 13.9524 32.4732C17.1642 26.7133 20.2407 20.9689 23.7304 15.3513C28.3381 7.89621 37.5276 1.77685 46.0963 0.0698218C48.0228 -0.314184 49.9052 0.921686 50.053 2.87174C50.5906 9.81709 41.9498 16.9798 37.5857 21.0049C32.3999 25.7857 28.3203 31.4867 23.6155 36.5834Z"
        fill="#fff" />
</svg>