<svg width="61" height="57" viewBox="0 0 61 57" fill="none" xmlns="http://www.w3.org/2000/svg">
    <path
        d="M6.81669 43.3773C6.42287 42.8226 6.5063 41.957 7.14349 41.5364L7.1455 41.535C8.84959 40.42 10.6622 39.3861 12.3542 38.333L12.3562 38.3315C15.5047 36.3884 18.665 34.2215 21.9009 32.3234C22.4904 31.9742 23.0944 31.6278 23.7175 31.3066C23.598 31.3475 23.4802 31.3875 23.3665 31.4265C20.2491 32.5053 17.1015 33.5689 13.8801 34.4044L13.2046 34.5764C12.5276 34.7458 11.8484 34.9084 11.1781 35.0734L11.1763 35.074C10.2855 35.2909 9.4116 35.5192 8.51972 35.7485L7.90062 35.9106C6.46767 36.2924 5.10729 36.6975 3.62591 37.0885C3.33059 37.1755 3.01049 37.1744 2.69511 37.0359L2.69025 37.0333C2.47272 36.9355 2.28981 36.7828 2.15627 36.5947C1.91342 36.2453 1.87807 35.8179 1.98235 35.4622C2.08868 35.0997 2.3632 34.7417 2.81166 34.6044L2.81181 34.6035C3.69969 34.3253 4.63308 34.0898 5.49178 33.8451L5.4955 33.844C7.30184 33.341 9.12023 32.8741 10.9399 32.4335C11.8438 32.2073 12.7199 32.0026 13.603 31.7671L13.6058 31.7667C16.6748 30.9646 19.6757 29.9216 22.7038 28.8764C22.5567 28.8999 22.4148 28.9207 22.2815 28.9404L22.2701 28.9425C20.8575 29.1249 19.4157 29.2148 18.0379 29.3405L18.0361 29.3402C16.1362 29.5081 14.2464 29.7089 12.3374 29.9004C11.4226 29.9962 10.4981 30.0985 9.56985 30.1815C8.63069 30.2654 7.69126 30.3118 6.75487 30.3351C5.72657 30.3713 4.77151 30.3727 3.74794 30.4332L3.72919 30.4344C3.2851 30.4471 2.84348 30.2485 2.57694 29.8732C2.28054 29.4557 2.29436 28.9505 2.46995 28.5692C2.64702 28.1848 3.02723 27.8431 3.55232 27.8106L3.55489 27.8111C4.58995 27.7516 5.49342 27.7384 6.37374 27.7181C7.25655 27.6977 8.12391 27.6696 9.11375 27.5821L9.1136 27.583C10.5295 27.4564 11.9442 27.309 13.3643 27.162C14.7831 27.0152 16.2076 26.8676 17.6344 26.7408L17.6342 26.7417C19.1663 26.6037 20.6395 26.5164 22.1165 26.3143C22.1271 26.3126 22.1377 26.3093 22.1485 26.3074C21.9243 26.2404 21.7438 26.1829 21.5371 26.1316C21.0433 26.0107 20.6956 25.9213 20.1549 25.7918C20.0363 25.7634 19.8836 25.7277 19.7604 25.6986C19.699 25.6841 19.6449 25.6712 19.6063 25.6621C19.587 25.6576 19.5715 25.6538 19.5608 25.6513C19.5581 25.6507 19.5557 25.6501 19.5536 25.6496L19.5519 25.6493C19.5503 25.649 19.5479 25.6484 19.5447 25.6477C19.5379 25.6462 19.5274 25.6436 19.5141 25.6407C19.4873 25.6349 19.4475 25.6264 19.3965 25.6153C19.2944 25.5933 19.1467 25.5613 18.9636 25.5221C18.597 25.4437 18.0889 25.3361 17.5244 25.219C16.392 24.9842 15.0432 24.7145 14.1449 24.5658L12.7593 24.3456C11.3597 24.1306 9.92646 23.9247 8.53971 23.6782C7.59911 23.5134 6.66011 23.3309 5.72708 23.1539C3.73846 22.7766 2.95943 22.6872 0.953859 22.1457C0.268713 21.9607 -0.102492 21.2601 0.0253594 20.6231L0.0577696 20.4965L0.0593537 20.4924C0.284507 19.7879 1.02287 19.4465 1.67891 19.6253L1.68012 19.6259C3.22054 20.0497 3.53698 20.0759 5.16136 20.3852C7.02701 20.7395 8.86594 21.1067 10.7158 21.3905L10.7175 21.3908C11.1937 21.4652 11.6683 21.5367 12.1445 21.6088C12.6205 21.6809 13.0982 21.7534 13.5779 21.8283L13.5805 21.8288C16.5418 22.3052 19.4723 22.9289 22.3753 23.6601L22.3775 23.66C22.5248 23.6977 22.6809 23.7371 22.8403 23.7773C22.8142 23.7536 22.7876 23.7282 22.7597 23.7031C21.981 23.0024 21.4087 22.5495 20.7008 21.9582C19.9655 21.35 19.2459 20.7122 18.5416 20.1062L18.5396 20.1046C16.4618 18.3021 14.3168 16.5774 12.0862 14.981L12.0854 14.98C11.3428 14.446 10.5926 13.8996 9.86524 13.3088L9.86453 13.3078C9.75357 13.2173 9.52707 13.0713 9.18498 12.8395C8.86749 12.6245 8.48631 12.3582 8.14297 12.0701C7.81091 11.7914 7.45931 11.448 7.25226 11.0663C7.14549 10.8694 7.05928 10.6294 7.05944 10.3621C7.05962 10.0813 7.15534 9.81666 7.33844 9.59117L7.33916 9.59217C7.56091 9.31682 7.88435 9.14612 8.23512 9.11632L8.23526 9.11547C8.2373 9.11528 8.23939 9.11581 8.24142 9.11563C8.24296 9.11551 8.24446 9.11477 8.246 9.11465L8.24585 9.1155C8.62123 9.08333 8.92711 9.21728 9.15649 9.3842L9.15664 9.38334C9.9021 9.91917 10.6104 10.5373 11.2775 11.0782L11.2813 11.0815C11.9619 11.6433 12.6735 12.1712 13.4011 12.7016C14.1243 13.2287 14.8684 13.7617 15.5912 14.3208L15.5911 14.3217C17.0618 15.4488 18.5156 16.6205 19.9244 17.8405C20.6504 18.4691 21.361 19.0921 22.0848 19.7007L22.0871 19.7029C22.5678 20.1111 23.0504 20.5034 23.5425 20.9112C22.1086 18.6272 20.5376 16.4406 18.9853 14.192C17.9441 12.6818 16.939 11.1458 15.9357 9.62426C15.8615 9.51166 15.6506 9.25536 15.3291 8.84952C15.0275 8.46875 14.6617 7.99573 14.3374 7.51313C14.0199 7.04063 13.7117 6.515 13.5562 6.03329C13.4167 5.60109 13.3062 4.87012 13.9254 4.43058C14.4774 4.03875 15.2391 4.14009 15.6749 4.64258C15.7117 4.6749 15.7463 4.71024 15.775 4.75063C16.8456 6.25872 17.8736 7.7938 18.8935 9.32309C19.915 10.8547 20.9283 12.3795 21.9777 13.8791C23.1952 15.6064 24.4219 17.3554 25.5603 19.1658C25.3057 18.4217 25.0446 17.6772 24.7834 16.9287C23.8788 14.3478 22.9205 11.7827 21.8954 9.24984C21.7217 8.82216 21.5417 8.39675 21.3597 7.966C21.1783 7.53656 20.9949 7.10231 20.8173 6.66509C20.6864 6.34743 20.5627 6.02851 20.443 5.70954L20.0945 4.75307L20.0943 4.75171C19.9023 4.20573 19.7036 3.62795 19.5601 3.02775L19.5023 2.76878L19.5015 2.76556C19.363 2.08122 19.7805 1.37034 20.4983 1.20928C20.5037 1.20805 20.5092 1.20698 20.5147 1.2059C20.9696 1.11657 21.4383 1.27557 21.7466 1.60399C21.792 1.64009 21.8338 1.68212 21.869 1.73173C21.9691 1.87265 22.0393 2.03471 22.0743 2.20797C22.2869 3.19111 22.6604 4.14342 23.0482 5.14554C23.3857 6.00871 23.7503 6.85243 24.1143 7.72825L24.3772 8.36536C24.983 9.85486 25.5331 11.364 26.0929 12.8432L26.0935 12.8451C26.6394 14.3006 27.1569 15.7633 27.662 17.2272C27.5466 16.3965 27.4365 15.5663 27.3267 14.7385C27.1493 13.4003 26.9716 12.0682 26.7712 10.7406C26.6311 9.83058 26.4731 8.92178 26.3149 8.00388C26.1966 7.31693 26.0787 6.62567 25.9698 5.93184L25.8646 5.23723L25.8634 5.2335C25.7852 4.67507 25.7124 4.13232 25.6303 3.58602L25.6092 3.48084C25.5818 3.36048 25.5355 3.19333 25.4749 2.96105C25.4013 2.67907 25.3164 2.33366 25.2702 1.99243C25.2258 1.6643 25.2059 1.26519 25.3183 0.904792C25.4457 0.496752 25.7476 0.14049 26.2634 0.0283067L26.2702 0.0272582C26.7999 -0.0818375 27.3267 0.145484 27.62 0.558518C27.7 0.671226 27.7918 0.832257 27.8335 1.03571L27.8345 1.03499C28.1463 2.46049 28.3255 3.92744 28.534 5.32288L28.759 6.68365C28.9932 8.05545 29.2461 9.45565 29.4467 10.8273L29.4473 10.8292C29.7732 13.1016 30.0455 15.2935 30.3623 17.5327C30.5518 16.6634 30.7384 15.7938 30.9326 14.9166C31.3478 12.9986 31.8627 11.0926 32.3295 9.21831C32.7354 7.47835 33.0968 5.73387 33.3937 3.97612C33.4153 3.84807 33.4276 3.66071 33.4575 3.36245C33.4846 3.09255 33.5246 2.76486 33.6009 2.45359C33.6741 2.15502 33.7982 1.79505 34.0408 1.51707C34.319 1.19832 34.7262 1.02126 35.2148 1.10452C35.2198 1.10537 35.2248 1.10654 35.2298 1.10751C35.5498 1.17012 35.8459 1.33143 36.0677 1.65003C36.2808 1.95629 36.3474 2.29977 36.2827 2.6363C36.1164 3.51252 35.9953 4.34165 35.8326 5.24863C35.5445 6.85734 35.2095 8.4613 34.8241 10.0515L34.6557 10.7326C34.4177 11.6735 34.1783 12.5483 33.9485 13.4769L33.9475 13.4799C33.6787 14.5404 33.4568 15.6113 33.2191 16.7024C33.122 17.1565 33.022 17.6104 32.922 18.0621C32.903 18.1477 32.8847 18.2334 32.8658 18.3189C33.058 17.8624 33.2646 17.415 33.4751 16.9779L33.7749 16.3638L33.7755 16.3626C34.2009 15.5036 34.6267 14.6437 35.0578 13.7799L35.0584 13.7787C35.2653 13.3658 35.4784 12.9545 35.6893 12.5479C35.9006 12.1404 36.1099 11.7376 36.312 11.3342L36.749 10.4723C37.1948 9.60345 37.6597 8.71408 38.0839 7.79257C38.6449 6.57374 39.1007 5.3666 39.2941 4.22189L39.2954 4.21416L39.3252 4.08718C39.504 3.46302 40.1301 3.03268 40.8068 3.14798C41.0992 3.19781 41.3441 3.34368 41.5271 3.53441C41.5768 3.57236 41.6217 3.61768 41.6591 3.67043C41.9274 4.04835 41.9254 4.46912 41.8737 4.77412C41.8224 5.07594 41.7051 5.36202 41.633 5.54051L41.6322 5.54258C41.3738 6.17436 41.1505 6.76878 40.899 7.40525L40.8983 7.40647C40.2167 9.12059 39.4854 10.8328 38.6561 12.4965L38.3479 13.1083C38.2423 13.3148 38.1344 13.5232 38.0269 13.7307L37.405 14.9423C36.6881 16.3702 35.8916 17.9729 35.2916 19.3475C35.7068 18.9086 36.1723 18.4193 36.4395 18.1518C38.219 16.3395 39.9763 14.6693 41.7218 12.8979L42.4695 12.1313L42.4715 12.1299C43.585 10.9844 44.4506 10.0161 45.7195 8.61187C45.9532 8.35321 46.1745 8.086 46.4053 7.81443C46.629 7.55117 46.8628 7.28231 47.0967 7.05904C47.3242 6.84202 47.5987 6.62142 47.9126 6.50328C48.2604 6.37236 48.6558 6.37027 49.0293 6.59773C49.1106 6.64724 49.1825 6.70543 49.2462 6.7672C49.3145 6.81056 49.3753 6.8662 49.4234 6.93388C49.7205 7.35239 49.7515 7.91988 49.477 8.37852L49.4759 8.38009C49.1934 8.84844 48.8087 9.24892 48.5275 9.56874L48.5224 9.57538C47.8809 10.2858 47.2281 10.9842 46.5589 11.6714C45.2644 13.0144 43.9657 14.3794 42.6342 15.7053L42.6332 15.706C40.7338 17.5892 38.8222 19.4004 37.0171 21.3284L37.0154 21.3303C36.9426 21.4076 36.8713 21.4858 36.7959 21.5685C36.7558 21.6126 36.7139 21.6577 36.6715 21.7037C37.343 21.3745 37.9956 21.0419 38.6322 20.673L38.6347 20.6712C41.7762 18.8735 44.6972 16.8346 47.8228 14.8973C49.7856 13.6741 51.716 12.5741 53.6184 11.3316C53.8851 11.1564 54.2085 11.0678 54.5605 11.1238L54.5607 11.1229C54.5638 11.1234 54.5668 11.1249 54.57 11.1254C54.5719 11.1257 54.5742 11.1252 54.5761 11.1255L54.576 11.1264C54.9324 11.1827 55.2344 11.3853 55.427 11.6566C55.8207 12.2113 55.7373 13.0769 55.1002 13.4975L55.0982 13.4989C53.3941 14.6139 51.5815 15.6478 49.8895 16.7009L49.8871 16.7019C46.7386 18.645 43.5787 20.8124 40.3428 22.7105C39.7521 23.0605 39.1468 23.4076 38.5223 23.7293C38.6425 23.6882 38.7608 23.6481 38.8752 23.6088C41.993 22.5298 45.1412 21.4655 48.3631 20.6298C49.262 20.3964 50.1718 20.1805 51.0656 19.9605L51.067 19.9603C51.9578 19.7433 52.832 19.5148 53.724 19.2854C55.3898 18.8577 56.9244 18.3926 58.6173 17.9457L58.6171 17.9466C58.9126 17.8594 59.2325 17.8598 59.5481 17.9984L59.5531 18.0001C59.7602 18.0932 59.9355 18.2369 60.0672 18.4128C60.0713 18.4182 60.076 18.4231 60.0799 18.4286L60.0874 18.4392C60.0903 18.4432 60.0922 18.4479 60.095 18.452C60.3301 18.799 60.3639 19.2197 60.261 19.5712C60.154 19.9362 59.8768 20.2975 59.4231 20.4329C58.5378 20.7099 57.6079 20.9449 56.7519 21.1888L56.7482 21.1899C54.9418 21.6929 53.1232 22.1593 51.3034 22.5999C50.3996 22.8261 49.5238 23.0313 48.6407 23.2668L48.6374 23.2675C45.5694 24.0694 42.5697 25.1122 39.5426 26.1571C39.6887 26.1337 39.8298 26.113 39.9622 26.0935C39.9659 26.0929 39.9695 26.0923 39.9731 26.0918C41.3857 25.9094 42.8276 25.8195 44.2053 25.6938L44.2076 25.6937C46.1075 25.5258 47.9973 25.325 49.9063 25.1335C50.8209 25.0377 51.745 24.9352 52.673 24.8523C53.61 24.7686 54.5478 24.7232 55.482 24.6998L55.4822 24.699C56.5129 24.6626 57.4698 24.6608 58.4954 24.6003C58.5017 24.5999 58.5082 24.5997 58.5145 24.5995C58.9586 24.5868 59.3997 24.7857 59.6663 25.1611C59.9627 25.5786 59.9494 26.0834 59.7738 26.4647C59.5967 26.8492 59.2162 27.1903 58.691 27.2228L58.6883 27.2232C57.6533 27.2827 56.7502 27.2955 55.87 27.3158C54.9872 27.3362 54.1197 27.3643 53.13 27.4518L52.0681 27.5504C51.0061 27.6519 49.9438 27.7615 48.8786 27.8717C47.4598 28.0186 46.0358 28.1658 44.609 28.2926C43.0765 28.4306 41.603 28.5185 40.1257 28.7207C40.0221 28.7368 39.911 28.7653 39.7248 28.8065L39.723 28.8071C39.738 28.8159 39.7532 28.8235 39.7669 28.8318C39.8752 28.897 39.9051 28.9184 39.9782 28.9615C40.3005 29.1205 40.6403 29.2533 41.0104 29.3971C41.9248 29.745 42.684 30.0242 43.3161 30.2661C43.3311 30.2707 43.3471 30.2773 43.3643 30.2841C45.0829 30.9309 46.8308 31.4804 48.6023 32.0596L48.6056 32.061C51.8532 33.1442 55.1781 34.1742 58.3832 35.5042L58.3849 35.5044C58.563 35.5789 58.7162 35.6939 58.837 35.8288C58.8686 35.8581 58.8991 35.8897 58.9248 35.926C59.1933 36.3043 59.2416 36.8049 59.0592 37.2271C59.0575 37.2312 59.0555 37.2354 59.0536 37.2394C58.8501 37.6837 58.4792 37.9138 58.0733 37.9716C57.7153 38.0226 57.3521 37.9394 57.0636 37.8451C56.7638 37.747 56.4689 37.6109 56.2293 37.4957C55.9676 37.37 55.8033 37.2865 55.6879 37.2423C53.5034 36.4259 51.2833 35.7065 49.0476 34.9817C46.8202 34.2597 44.5776 33.5317 42.3676 32.7034L41.9772 32.5596C41.9616 32.5533 41.9465 32.5463 41.9317 32.539C41.8857 32.5218 41.8405 32.5049 41.7959 32.488C41.7191 32.4591 41.6436 32.4307 41.5666 32.4022C41.5196 32.3847 41.4767 32.3606 41.4364 32.3336C41.2154 32.2246 40.9663 32.1295 40.688 32.0351C40.4277 31.9469 40.1189 31.85 39.8316 31.7461C40.2012 32.028 40.5642 32.311 40.9199 32.5839C41.8202 33.2746 42.7115 33.9587 43.6235 34.6087L43.6234 34.6095C44.3893 35.1496 45.1704 35.6716 45.9593 36.2023C46.7463 36.7319 47.54 37.2696 48.3206 37.83L48.3208 37.8291C50.8664 39.6443 53.2774 41.6558 55.6317 43.6695C55.6361 43.6732 55.6404 43.6775 55.6447 43.6814C55.7212 43.7505 55.7902 43.8278 55.8503 43.9126C55.875 43.9474 55.8944 43.9847 55.9112 44.0227C56.1615 44.4633 56.1629 45.0514 55.797 45.4989C55.7959 45.5003 55.7949 45.5012 55.7937 45.5027C55.7925 45.5042 55.7915 45.5059 55.7903 45.5074C55.3502 46.0466 54.5029 46.1674 53.9388 45.6822L52.8932 44.7982C51.8433 43.9191 50.7805 43.0542 49.7076 42.1944L49.7056 42.1927C48.7391 41.4117 47.7602 40.6576 46.7585 39.9388C45.9951 39.3974 45.2164 38.8759 44.4295 38.3471C43.6441 37.8193 42.8512 37.2847 42.0735 36.7248C40.9136 35.8939 39.7828 35.0372 38.6444 34.1586C38.2573 33.8598 37.8978 33.5732 37.52 33.2965C37.4319 33.232 37.4085 33.2245 37.2597 33.1223C37.1811 33.0682 37.0806 32.9948 36.9831 32.8984C37.9433 34.116 38.8344 35.4358 39.7224 36.6338C41.607 39.1816 43.5061 41.7339 45.3467 44.3267C46.6955 46.2265 48.0133 48.1483 49.29 50.1002C49.4657 50.3675 49.5545 50.6915 49.4989 51.0439L49.5003 51.0437C49.448 51.4069 49.2424 51.7141 48.9677 51.9092C48.4138 52.3024 47.548 52.2181 47.1267 51.58L47.1244 51.5756C46.634 50.8202 46.1242 50.0806 45.6103 49.3238C45.0817 48.5464 44.5697 47.782 44.0409 47.0153C42.9756 45.4715 41.8631 43.9592 40.7443 42.4377C39.1633 40.2857 37.5614 38.1327 35.9924 35.9619C35.577 35.3877 35.1838 34.8342 34.7607 34.3099C34.6865 34.233 34.6054 34.1416 34.5311 34.0354C34.5777 34.163 34.6112 34.2864 34.6356 34.3972C34.6622 34.5185 34.6823 34.6382 34.6992 34.742C34.7166 34.8485 34.7302 34.9343 34.7458 35.015L34.888 35.669C34.9371 35.8875 34.9877 36.1078 35.0388 36.3343L35.0389 36.3365C35.3162 37.5865 35.588 38.8106 35.9299 40.029C36.1802 40.8885 36.4873 41.7244 36.8002 42.592C37.1187 43.4755 37.4228 44.3646 37.7243 45.249C38.0263 46.135 38.3257 47.0162 38.6376 47.8918C38.9438 48.7408 39.2744 49.6164 39.5687 50.4917L39.6286 50.6472C39.7058 50.8346 39.8339 51.1183 39.9979 51.4937C40.2049 51.9678 40.4491 52.5461 40.6457 53.1196C40.8382 53.681 41.0042 54.292 41.0212 54.8187C41.0371 55.3152 40.9144 56.0344 40.1887 56.2939L40.1858 56.2951C39.5234 56.5284 38.7607 56.1909 38.5127 55.5052C38.1973 54.6383 37.9048 53.7679 37.6172 52.9087C37.3291 52.0478 37.0458 51.1983 36.7448 50.3585L36.2698 49.0559C36.1108 48.6187 35.9528 48.179 35.7998 47.739C35.4858 46.8396 35.1785 45.9225 34.8689 45.0226C34.4352 43.7603 33.8983 42.414 33.4966 41.0785C33.0905 39.7847 32.8121 38.4494 32.5246 37.1753C32.4669 36.921 32.4063 36.6605 32.346 36.3975C32.3204 36.9897 32.2778 37.5768 32.2582 38.1096L32.2579 38.1113C32.2408 38.5466 32.2454 38.9842 32.2503 39.4399L32.2504 39.4421C32.2786 43.787 32.1975 48.0971 32.6544 52.3616L32.6547 52.3651C32.7135 52.9421 32.8002 53.4936 32.877 54.1027C32.9714 54.8594 32.3746 55.4866 31.6922 55.5491C31.2724 55.5881 30.9118 55.4443 30.6525 55.1657C30.4224 54.9184 30.3101 54.6061 30.2476 54.3529C30.1828 54.0904 30.1541 53.8163 30.1359 53.5918C30.1256 53.4656 30.1188 53.3644 30.1128 53.2787L30.093 53.0585L30.0924 53.0544C29.9191 51.6419 29.8532 50.2509 29.7964 48.8715L29.7371 47.455C29.6916 46.2733 29.6571 45.0884 29.6436 43.9038L29.6383 43.1926L29.6381 43.1913C29.6373 42.7004 29.6368 42.2092 29.636 41.7183C29.6353 41.2282 29.6343 40.7381 29.6335 40.248L29.6274 38.8746C29.6289 38.4108 29.6373 37.9426 29.6626 37.4764C29.6854 37.0435 29.7132 36.634 29.7306 36.2319C29.3952 37.1094 28.9872 37.9542 28.5888 38.7625L28.5886 38.7634C28.1633 39.6224 27.737 40.4826 27.3059 41.3464L27.3057 41.3473C27.0988 41.7602 26.8852 42.1719 26.6744 42.5785C26.4631 42.9858 26.2542 43.3886 26.0522 43.7918L25.615 44.6545C25.1693 45.5233 24.7048 46.4126 24.2807 47.3339C23.7196 48.5528 23.2621 49.7671 23.0688 50.9118C22.9433 51.6033 22.2786 52.1014 21.5569 51.9784C21.232 51.9229 20.9176 51.755 20.705 51.4556L20.6578 51.3848C20.4371 51.0261 20.4419 50.6387 20.4903 50.3527C20.5288 50.1263 20.6043 49.9084 20.67 49.7385L20.7307 49.5858L20.732 49.5834C20.9903 48.9518 21.2136 48.3579 21.465 47.7216L21.4657 47.7204C22.1473 46.0061 22.8786 44.2934 23.708 42.6295L24.0157 42.0181C24.1213 41.8115 24.2293 41.6032 24.3368 41.3957L24.9587 40.1841C25.6984 38.7105 26.5241 37.0509 27.1299 35.6478L27.3752 35.0633L27.4028 35.0044C27.4292 34.9549 27.4514 34.8998 27.4727 34.8391C27.4102 34.9056 27.3426 34.9782 27.2713 35.0539C26.8051 35.5489 26.1725 36.2157 25.8435 36.5451C23.81 38.616 21.805 40.5015 19.8141 42.5644L19.8121 42.5659C18.6833 43.7272 17.7478 44.6632 16.4711 46.0411C16.0841 46.4588 15.5842 47.0382 15.129 47.4617C14.8994 47.6751 14.6453 47.8838 14.3861 48.0245C14.1449 48.1555 13.7637 48.3006 13.3609 48.1493L13.2801 48.1152C13.0996 48.0293 12.9781 47.9065 12.8896 47.8L12.8195 47.7077C12.518 47.2725 12.5688 46.7714 12.7628 46.3959L12.8066 46.3172L12.8077 46.3156C12.949 46.0814 13.1161 45.8642 13.2827 45.6656L13.7561 45.127L13.7615 45.1209C14.4025 44.411 15.054 43.7133 15.7225 43.0266L17.6722 41.0024C17.9988 40.6648 18.3264 40.3276 18.6558 39.9921L19.6494 38.9905L19.6504 38.9897C21.5199 37.1362 23.4006 35.3518 25.1806 33.4578C24.6418 33.708 24.2186 34.0091 23.6115 34.3609L23.6081 34.3626C20.4666 36.1603 17.5461 38.1997 14.4204 40.1369C12.4577 41.3601 10.5272 42.4602 8.62478 43.7027C8.35808 43.8778 8.03461 43.9664 7.68267 43.9105L7.68253 43.9114C7.31942 43.8586 7.01203 43.6525 6.81669 43.3773ZM24.9123 30.7425C25.1038 30.6694 25.3496 30.5993 25.6153 30.6092L25.6227 30.6101C26.0234 30.6298 26.4259 30.8242 26.6788 31.1805C26.8621 31.4387 26.9612 31.7558 26.9175 32.0864C27.3528 32.0319 27.8241 32.1709 28.1383 32.6134C28.2872 32.8232 28.3641 33.0584 28.3772 33.2932C28.5419 33.2198 28.744 33.1633 28.9764 33.1754C28.9819 33.1756 28.9875 33.176 28.993 33.1764C29.2394 33.1957 29.5155 33.2769 29.7531 33.4764L29.758 33.4812C29.9009 33.6038 30.0028 33.7456 30.0764 33.8893C30.1689 33.8022 30.2758 33.7289 30.3955 33.6703L30.397 33.6692C30.6359 33.5532 30.9182 33.4943 31.2237 33.5464C31.4718 33.5887 31.7716 33.7148 31.9848 33.9658C31.9873 33.9688 31.9891 33.9724 31.9915 33.9754C32.0508 33.7277 32.1865 33.4796 32.4615 33.2843C33.0075 32.8966 33.7585 32.9917 34.1965 33.4801C34.2379 33.5147 34.2759 33.5537 34.3077 33.5984C34.3128 33.6056 34.3171 33.6135 34.322 33.6208C34.2164 33.2936 34.2358 32.9244 34.454 32.5726L34.4569 32.5682C34.8548 31.9383 35.6599 31.7973 36.2486 32.1412L36.2484 32.1421C36.4708 32.2708 36.6479 32.4737 36.7527 32.6048C36.6481 32.4325 36.5746 32.2339 36.5577 32.0079L36.5541 31.8722L36.5547 31.8634C36.5666 31.5637 36.6838 31.2764 36.8774 31.0532L36.9654 30.9613L36.9722 30.9549C37.2182 30.7284 37.5609 30.6052 37.9049 30.6117C37.8775 30.57 37.8513 30.526 37.828 30.4789L37.8244 30.4716C37.5197 29.8543 37.7381 29.0843 38.3587 28.738C38.0941 28.5945 37.8999 28.3613 37.79 28.0603C37.5849 27.5009 37.8024 26.8361 38.3126 26.5089C38.1251 26.5212 37.9047 26.5048 37.6843 26.4063C37.422 26.289 37.2215 26.0848 37.0858 25.8215C36.8043 25.2808 36.9485 24.6784 37.3294 24.2928C37.1382 24.3656 36.8931 24.4345 36.6284 24.4247L36.6206 24.4242C36.2199 24.4044 35.8178 24.2096 35.5649 23.8534C35.2975 23.4769 35.2598 23.0037 35.4207 22.6023C34.9708 22.6759 34.473 22.5437 34.1457 22.0829C34.0875 22.0009 34.0411 21.9146 34.0044 21.8265C33.8367 21.9036 33.6281 21.9639 33.3876 21.9515C33.3821 21.9512 33.3765 21.9509 33.371 21.9504C33.1246 21.9311 32.8487 21.8491 32.6111 21.6496L32.606 21.6456C32.4189 21.4852 32.3019 21.2918 32.2276 21.1041C32.1516 21.2248 32.0484 21.3431 31.9066 21.4438C31.4769 21.7488 30.9203 21.754 30.489 21.5048C30.4243 21.581 30.3471 21.6531 30.2551 21.7185C29.8604 21.9986 29.3583 22.0265 28.9449 21.8362C28.8969 21.9701 28.8273 22.097 28.736 22.2105C28.512 22.4895 28.1826 22.6622 27.8271 22.6894C27.5827 22.7081 27.3605 22.6575 27.1676 22.5682C27.1148 22.8294 26.9875 23.0744 26.7848 23.2684L26.779 23.2741C26.6475 23.3966 26.5128 23.4797 26.3367 23.545C26.0908 23.6361 25.8565 23.6501 25.6337 23.608C25.5635 23.9912 25.3291 24.3467 24.956 24.5455L24.9508 24.5477C24.8265 24.6126 24.6964 24.655 24.5651 24.6772C24.6979 24.9014 24.7858 25.1731 24.7324 25.5092C24.675 25.8982 24.4355 26.247 24.0932 26.4413C24.2526 26.5796 24.3746 26.7595 24.453 26.9748C24.658 27.534 24.4413 28.1983 23.9315 28.5255C24.1188 28.5133 24.339 28.5288 24.559 28.6271C24.8202 28.7439 25.0198 28.9473 25.1554 29.2089C25.1561 29.2101 25.1572 29.2111 25.1579 29.2124C25.4392 29.7536 25.2941 30.3572 24.9123 30.7425Z"
        fill="#fff" />
</svg>