<svg width="42" height="53" viewBox="0 0 42 53" fill="none" xmlns="http://www.w3.org/2000/svg">
    <path
        d="M-0.000258212 24.8975C-0.0131136 29.4189 1.78496 33.706 4.47256 37.6796C8.81527 44.1056 17.9083 52.9286 26.622 52.2319C28.2632 52.0956 26.8606 50.049 26.4438 49.4394C22.6783 43.8477 18.8758 38.2748 17.5297 31.5284C15.9074 23.3359 17.8764 13.8759 25.0607 8.82363C29.0004 6.05322 34.533 4.75179 39.3126 4.96185C39.8055 4.98097 40.6366 5.23888 40.8963 4.66344C42.4128 1.30499 30.8704 -1.7145 29.3008 -1.9731C24.3036 -2.80503 18.9947 -1.7797 14.2918 -0.0541988C6.03023 2.9609 0.884007 11.9876 0.075542 20.4139C-0.06855 21.9017 0.06958 26.3906 -0.000258212 24.8975Z"
        fill="#fff" />
</svg>