<svg width="65" height="61" viewBox="0 0 65 61" fill="none" xmlns="http://www.w3.org/2000/svg">
    <path
        d="M32.7 39.6699C40.647 35.5342 48.5402 31.3139 56.3946 27.0015C56.9867 26.6736 57.528 26.254 58.2361 26.1651C60.6965 25.8845 67.2518 41.3433 62.7051 43.2051C58.6219 44.9073 54.4833 46.4776 50.3447 48.0478C43.4126 50.6689 36.4911 53.3131 29.5715 55.9734C25.9998 57.3488 22.4147 58.6769 18.8966 60.1683C17.9037 60.5907 17.3229 60.3803 16.785 59.3433C15.5567 56.9937 14.2383 54.7032 12.5966 52.6204C9.27368 48.4148 5.50856 44.1853 0.871189 41.444C0.363814 41.1506 -0.289725 40.6268 0.138587 39.9736C6.19433 30.7061 12.1991 21.4068 18.141 12.0644C19.3561 10.1552 23.9311 -1.15044 27.4937 0.0956913C30.7542 1.2291 33.8574 2.68148 36.7744 4.55376C37.2796 4.87856 37.7721 5.1641 37.6073 5.84191C37.5045 6.28485 37.2873 6.71643 37.032 7.0954C34.9452 10.3111 33.1373 13.7066 30.9911 16.8966C28.8925 20.0079 26.8738 23.1834 24.6802 26.2404C24.5199 26.4621 24.3782 26.7061 24.3272 27.0373C29.6989 21.8255 34.9497 16.493 40.1439 11.1015C40.7287 10.4978 41.2416 9.82914 41.8985 9.29049C44.4476 7.17795 52.1721 17.1075 53.7073 18.8627C55.4387 20.8445 51.1576 23.3996 49.8994 24.5365C44.293 29.621 38.0051 34.2769 32.6599 39.6013C32.6676 39.6132 32.7249 39.7084 32.7 39.6699Z"
        fill="#fff" />
</svg>