<svg width="27" height="28" viewBox="0 0 27 28" fill="none" xmlns="http://www.w3.org/2000/svg">
    <path
        d="M22.9091 20.5571C20.9794 23.9254 17.1483 25.5918 13.3949 24.6416C11.5147 24.1665 10.7089 27.0951 12.5962 27.5702C17.6431 28.8466 22.9021 26.6413 25.5103 22.0888C26.4858 20.394 23.8775 18.8623 22.9091 20.5571Z"
        fill="#fff" />
    <path
        d="M20.7886 5.17654C22.4497 7.60878 23.2484 10.275 23.1565 13.232C23.1 15.1892 26.1112 15.1821 26.1677 13.232C26.2737 9.79284 25.3195 6.4813 23.3827 3.64486C22.2871 2.04937 19.6788 3.55977 20.7815 5.17654H20.7886Z"
        fill="#fff" />
    <path
        d="M6.66571 3.24775C5.35803 4.68724 7.47859 6.83584 8.79333 5.39635C9.5638 4.54542 10.4403 3.58103 11.5642 3.20521C12.3841 2.92865 13.7342 2.94284 14.13 3.91432C14.8581 5.69418 17.7703 4.91416 17.0352 3.10593C16.2435 1.16297 14.54 -0.00705904 12.4336 3.2049e-05C10.0939 3.2049e-05 8.17131 1.60262 6.67278 3.24775H6.66571Z"
        fill="#fff" />
    <path
        d="M1.49863 9.53047C-0.812774 12.8846 -0.37453 17.3661 2.2903 20.3586C3.58383 21.8193 5.71146 19.6636 4.41792 18.21C2.60132 16.1677 2.58011 13.2604 4.09984 11.0551C5.2096 9.44538 2.60131 7.92788 1.49863 9.52337V9.53047Z"
        fill="#fff" />
    <path
        d="M15.0631 13.232C15.1408 15.253 13.2818 16.9406 11.2814 16.0543C9.52138 15.2742 7.98752 17.8909 9.76171 18.678C13.7201 20.4295 18.251 17.7703 18.0743 13.232C17.9965 11.282 14.9853 11.2749 15.0631 13.232Z"
        fill="#fff" />
    <path
        d="M9.3588 9.00572C8.61661 9.3461 8.4399 10.431 8.8216 11.0834C9.26691 11.8493 10.1363 11.9698 10.8856 11.6294C11.4299 11.3812 12.0166 11.3742 12.5679 11.5018C13.3596 11.6862 14.2007 11.2536 14.4199 10.4381C14.6319 9.67229 14.1654 8.75754 13.3667 8.57317C11.9742 8.23989 10.6594 8.41716 9.36588 9.00572H9.3588Z"
        fill="#fff" />
</svg>