<svg width="40" height="42" viewBox="0 0 40 42" fill="none" xmlns="http://www.w3.org/2000/svg">
    <path
        d="M10.9703 1.47468C11.2981 1.20776 11.6874 0.889159 12.1194 0.623732C12.353 0.47924 12.6558 0.297029 13.0107 0.162289C13.4167 0.00639911 14.0044 -0.0983132 14.6301 0.141861C14.9968 0.281156 15.4368 0.563203 15.7266 1.02969C15.9718 1.42487 16.1534 1.94637 16.0534 2.5325L16.0542 2.53261C15.9692 3.04215 15.6877 3.47985 15.2853 3.75877C15.2788 3.76325 15.2722 3.76753 15.2656 3.77185C15.0377 3.92186 14.777 4.01547 14.5039 4.05183C14.2838 4.19165 14.063 4.35163 13.8281 4.52984C13.2068 5.03606 12.5998 5.55195 11.9995 6.08435L12.0003 6.08446C11.3482 6.6679 10.7099 7.23858 10.0919 7.82951C9.88672 8.02535 9.68354 8.22738 9.47269 8.43663L9.46945 8.43927C9.43604 8.47214 9.40249 8.50677 9.35908 8.55177C9.31844 8.59389 9.26789 8.64668 9.21341 8.7003C9.21088 8.70279 9.20818 8.70563 9.20563 8.7081C9.19802 8.71543 9.18736 8.72595 9.16295 8.75161C9.14731 8.76804 9.11953 8.79653 9.08908 8.82708C9.07866 8.83945 9.06968 8.85314 9.05867 8.86498C8.91125 9.02345 8.77427 9.16913 8.64561 9.31518L8.64354 9.3176C8.07707 9.95672 7.5369 10.5847 7.03715 11.2417L7.03296 11.2473C6.91105 11.4053 6.79741 11.5544 6.68496 11.7088L6.68491 11.7095C6.35918 12.1562 6.04885 12.6044 5.74552 13.0687L5.74254 13.0733C5.47328 13.4806 5.23262 13.9135 4.97382 14.3898C4.83281 14.6799 4.69644 14.9629 4.56327 15.2483L4.5625 15.2481C4.46612 15.4549 4.38271 15.6723 4.28565 15.9276C4.18889 16.2181 4.10688 16.4824 4.04081 16.749C4.01808 16.8817 3.99826 17.0113 3.98078 17.1425C3.97814 17.1953 3.97713 17.2474 3.97747 17.3021C3.97835 17.3173 3.97997 17.3319 3.98132 17.3457C3.98937 17.3499 3.9972 17.3547 4.00551 17.3589C4.03175 17.3704 4.0519 17.3782 4.06595 17.3827C4.14125 17.4027 4.20191 17.4178 4.25982 17.4314C4.3626 17.4454 4.4551 17.4552 4.54253 17.4611C4.69785 17.4646 4.85961 17.4601 5.01857 17.4488C5.30787 17.4185 5.59884 17.3652 5.93215 17.3C6.26477 17.2193 6.57305 17.1424 6.8611 17.0517L6.86226 17.0515C7.21098 16.9421 7.55524 16.8237 7.90313 16.6968C8.62169 16.4093 9.32328 16.0637 10.0246 15.6791C10.5698 15.3514 11.0981 15.021 11.6081 14.6695C12.1415 14.2997 12.6599 13.9065 13.2021 13.495C13.3349 13.3878 13.4683 13.2867 13.5869 13.197C13.7429 13.0772 13.8992 12.9555 14.059 12.8309C14.2181 12.7069 14.3802 12.5802 14.5429 12.4552C14.627 12.3872 14.7117 12.3224 14.7844 12.2665C14.8659 12.204 14.9344 12.1517 14.9981 12.0999C15.0554 12.0532 15.1301 11.9933 15.2151 11.9305L15.3045 11.8577C15.3515 11.8194 15.4204 11.7647 15.498 11.7075L16.079 11.2345C16.0882 11.2269 16.0985 11.2202 16.108 11.213C16.2032 11.1381 16.2963 11.0686 16.3775 11.0082C16.3877 11.0006 16.3987 10.994 16.4092 10.9868C16.9516 10.567 17.4942 10.1533 18.0433 9.74093L18.0462 9.73862C18.2659 9.57504 18.4859 9.41523 18.7006 9.25908C18.9105 9.10637 19.1156 8.95716 19.3192 8.8058C19.4147 8.72711 19.6039 8.56615 19.8081 8.44131L19.8081 8.44054C20.2492 8.16773 20.8184 8.06378 21.4043 8.24773L21.5217 8.28863L21.5236 8.28929C22.2027 8.54846 22.7297 9.15803 22.8931 9.86884L22.8939 9.86895C22.8942 9.87041 22.894 9.8722 22.8944 9.87367C22.8947 9.8752 22.8957 9.87664 22.896 9.87817L22.8953 9.87806C23.0597 10.5968 22.8299 11.3513 22.2732 11.7972C22.2709 11.7991 22.2686 11.801 22.2663 11.8028C22.2638 11.8048 22.2618 11.8073 22.2594 11.8092C22.1714 11.88 22.0835 11.9441 22.0125 11.9956L21.968 12.0318C21.6235 12.3123 21.2964 12.6257 20.9405 12.9685L20.938 12.9712C20.5248 13.3661 20.1185 13.7692 19.7242 14.1777C18.5847 15.3596 17.4646 16.5315 16.3831 17.7442L16.3819 17.7452C15.2752 18.982 14.24 20.2941 13.2376 21.6428L13.2368 21.6427C12.5193 22.6327 11.8445 23.604 11.2815 24.6291C11.0824 25.0334 10.8974 25.4359 10.73 25.8461C10.6478 26.0922 10.5753 26.3443 10.5075 26.6106C10.4789 26.773 10.4528 26.9392 10.4294 27.1042C10.4195 27.2339 10.4167 27.3537 10.4101 27.5287C10.4152 27.6508 10.422 27.7551 10.435 27.8553C10.4406 27.891 10.4527 27.9422 10.4807 28.0429C10.4826 28.0487 10.4853 28.0561 10.4886 28.065C10.4933 28.0777 10.4989 28.0919 10.5052 28.1069C10.5119 28.1212 10.5166 28.1314 10.5209 28.1402C10.5265 28.1484 10.5326 28.1566 10.5385 28.1652C10.5426 28.1711 10.5466 28.1775 10.5509 28.1836C10.5555 28.1868 10.5601 28.1897 10.5642 28.1925C10.5673 28.1947 10.5705 28.1969 10.5734 28.1989C10.5786 28.2017 10.5835 28.2041 10.5875 28.2063C10.5958 28.2093 10.6062 28.2142 10.6187 28.2189C10.6444 28.2262 10.673 28.2335 10.702 28.2394L10.7792 28.2474L10.7873 28.2474C10.9766 28.2511 11.1558 28.2464 11.3364 28.2339C11.4404 28.223 11.5334 28.2085 11.6165 28.1884C11.9376 28.1031 12.2291 28.0194 12.5071 27.9196C12.698 27.8412 12.8371 27.7868 12.973 27.7212C13.1503 27.6312 13.3226 27.5385 13.5053 27.4397C13.948 27.171 14.3806 26.8964 14.8044 26.6076C15.2047 26.3311 15.601 26.0303 16.0061 25.7153C16.7155 25.1598 17.4082 24.5883 18.1229 24.0064C18.6865 23.5476 19.2619 23.0715 19.8411 22.6074L19.8428 22.6061C21.1823 21.538 22.5398 20.4849 23.8871 19.4402C25.1771 18.4419 26.4885 17.4127 27.8468 16.4433L27.8468 16.4441C27.8894 16.412 27.9289 16.384 27.9618 16.3628C28.026 16.311 28.1127 16.2428 28.2139 16.1772C28.2177 16.1747 28.2221 16.1722 28.2259 16.1697C28.229 16.1677 28.2321 16.1656 28.2351 16.1636C28.8123 15.7898 29.5589 15.7829 30.1892 16.1094L30.1925 16.1111C30.9824 16.5233 31.3771 17.3274 31.3799 18.0762L31.3806 18.0763C31.3832 18.6603 31.1087 19.1879 30.7043 19.5104C30.7009 19.5131 30.6973 19.5161 30.6933 19.5193C30.6905 19.5215 30.688 19.5245 30.6852 19.5267C30.6519 19.5538 30.6014 19.5926 30.5448 19.6337C30.3752 19.7728 30.2112 19.9307 30.0136 20.1216C30.0099 20.1253 30.006 20.1288 30.0022 20.1324C29.7633 20.3559 29.5397 20.5788 29.2813 20.8288L29.2821 20.8289C28.8126 21.2841 28.3553 21.752 27.896 22.2298L27.8952 22.2297C27.3257 22.8264 26.7735 23.4227 26.2418 24.0373C25.7305 24.6282 25.2336 25.2451 24.7318 25.8771C24.0987 26.6734 23.4812 27.4792 22.8792 28.301L22.8784 28.3009C21.9004 29.6465 20.9526 31.0014 20.0664 32.3981L20.0656 32.398C19.7787 32.8524 19.5043 33.3195 19.2343 33.7998C18.8489 34.528 18.4969 35.232 18.2178 35.9539C18.1224 36.2366 18.0405 36.4879 17.9754 36.7426C17.9576 36.8261 17.9437 36.9055 17.9334 36.9805C17.9321 37.022 17.9305 37.0604 17.9297 37.0967C17.9967 37.0966 18.0712 37.0946 18.1662 37.0903C18.3201 37.0725 18.4678 37.0436 18.6752 37.0044C18.7306 36.9898 18.7839 36.9758 18.8304 36.9642C18.895 36.948 18.9478 36.9348 18.998 36.9212C19.0021 36.92 19.0067 36.9191 19.0109 36.918C19.1063 36.8933 19.1613 36.8694 19.3351 36.8102C19.4388 36.7684 19.5363 36.7291 19.6298 36.69L19.9175 36.5638L19.9191 36.5633C20.1274 36.4665 20.329 36.3629 20.5495 36.2485C21.0221 35.9725 21.4643 35.7067 21.8806 35.4152C22.3453 35.0877 22.801 34.7531 23.2596 34.4092C24.5322 33.4092 25.7498 32.3588 26.8836 31.2256C27.7584 30.349 28.6231 29.4668 29.4908 28.5809L29.555 28.5118C29.5664 28.5001 29.5791 28.4876 29.5927 28.4745C29.723 28.3395 29.8996 28.1585 29.9849 28.069L29.9907 28.0629C30.5696 27.4661 31.1388 26.857 31.7159 26.2392C32.2909 25.6237 32.8739 24.9995 33.4702 24.3852L33.471 24.3845C34.3605 23.47 35.3532 22.499 36.2237 21.6118L36.2279 21.607C36.6313 21.2009 37.2138 21.0642 37.7056 21.1207C37.7093 21.1211 37.7134 21.1212 37.7171 21.1216C37.7196 21.1219 37.7222 21.1224 37.7247 21.1227C38.2455 21.1842 38.7288 21.454 39.0786 21.847L39.0793 21.8479C39.4577 22.274 39.6526 22.8207 39.6375 23.3521C39.6373 23.3584 39.637 23.3647 39.6367 23.371C39.6118 23.9207 39.3776 24.3436 39.0713 24.6519L39.0721 24.652C38.1215 25.6208 37.2495 26.4682 36.3296 27.415C35.2205 28.5654 33.9905 29.9237 32.8399 31.1009L32.8362 31.1047C32.7214 31.2209 32.6185 31.3253 32.5167 31.4349C32.5111 31.4409 32.5056 31.4471 32.4998 31.453C31.8921 32.0754 31.2853 32.6895 30.6764 33.3049L30.6756 33.3048C30.0776 33.9116 29.4691 34.521 28.8429 35.1146L28.8437 35.1147C28.1699 35.7559 27.4722 36.362 26.7595 36.9423C26.148 37.4401 25.5198 37.9224 24.8872 38.3886C24.8608 38.4125 24.8336 38.4364 24.8042 38.4577C24.4594 38.7071 24.0953 38.9477 23.7737 39.1667L23.7681 39.1705C23.374 39.435 22.9638 39.6801 22.5417 39.9026C22.5387 39.9042 22.5356 39.9063 22.5325 39.9079C22.1277 40.116 21.6972 40.3293 21.2341 40.5168C21.2315 40.5179 21.2288 40.5193 21.2262 40.5203C20.7725 40.6994 20.2642 40.8752 19.7173 40.9815L19.7115 40.9826C19.2996 41.0604 18.8474 41.1329 18.3538 41.1441L18.3496 41.1439C17.5934 41.1582 16.7565 41.0133 15.9775 40.5945L15.9767 40.5944C15.0589 40.1005 14.3717 39.22 14.1203 38.2118L14.1193 38.2082C14.041 37.8902 13.9958 37.5735 13.9757 37.2644L13.967 37.0305C13.9626 36.8139 13.9681 36.6012 13.9811 36.3912C14.0036 36.0264 14.0859 35.6841 14.1343 35.4656L14.1406 35.4378C14.2644 34.9412 14.4241 34.4747 14.5918 34.0323C14.7538 33.6022 14.9427 33.1886 15.1377 32.8001C15.3354 32.3984 15.5503 31.9616 15.7959 31.5364L16.1189 30.9755C16.1921 30.8504 16.2667 30.726 16.3415 30.6015C16.1521 30.7191 15.9667 30.8313 15.7932 30.9377L15.788 30.9412C14.9578 31.443 14.0439 31.8299 13.0813 32.0696C12.9025 32.1171 12.7149 32.1611 12.524 32.1971C12.1278 32.2743 11.7315 32.2888 11.4174 32.2957C10.6421 32.3149 9.81768 32.1799 9.02335 31.7839C7.32894 30.9422 6.52938 29.1195 6.45903 27.5802L6.45887 27.5767C6.4364 27.0483 6.44014 26.4605 6.55048 25.8667L6.55138 25.8645C6.64621 25.3599 6.76748 24.855 6.93553 24.3494L6.93774 24.3447C7.2604 23.3893 7.72498 22.5179 8.17877 21.7295L8.18139 21.7245C8.38172 21.3809 8.60536 21.0461 8.80467 20.7461C8.76372 20.76 8.72346 20.7741 8.68367 20.7877C8.2441 20.9393 7.79855 21.0597 7.37759 21.1656C7.37384 21.1665 7.37004 21.1673 7.36628 21.1682C6.61754 21.3475 5.79231 21.4997 4.91279 21.4896L4.9105 21.4893C4.15294 21.4791 3.34166 21.3415 2.55883 20.9766L2.40614 20.9024C2.05579 20.7237 1.73997 20.5042 1.4552 20.2603L1.30227 20.1213C1.00787 19.8381 0.778876 19.5226 0.598488 19.2188L0.512042 19.068C0.0471893 18.2297 -0.0336094 17.3161 0.0110845 16.5914C0.031978 16.2527 0.0863444 15.938 0.134838 15.6759L0.135385 15.6733C0.239874 15.1173 0.413856 14.5929 0.588341 14.1335C0.754756 13.6935 0.939679 13.2664 1.12809 12.8574C1.32855 12.4222 1.55872 12.0019 1.78038 11.6145L1.78254 11.6105C1.95139 11.3184 2.12918 11.0192 2.3175 10.7238L2.50981 10.43C2.88836 9.85471 3.28917 9.29736 3.70282 8.75557L4.12255 8.21599C4.73951 7.43129 5.39219 6.6638 6.08903 5.93374C6.09467 5.92715 6.09982 5.9201 6.10565 5.91363C6.11717 5.90085 6.15816 5.85373 6.21576 5.79916C6.23777 5.77673 6.25867 5.75498 6.27856 5.73489C6.32791 5.68505 6.36989 5.64305 6.41108 5.59998C6.4495 5.55885 6.48672 5.5211 6.51088 5.49682C6.5427 5.46484 6.55833 5.44905 6.57039 5.43595C6.59109 5.41346 6.61324 5.39212 6.63588 5.37168C6.65269 5.35281 6.66992 5.33426 6.6881 5.31675C6.75817 5.24928 6.82922 5.17928 6.90541 5.10405C6.98008 5.03031 7.05979 4.95092 7.14035 4.87334C7.14255 4.87122 7.14506 4.86906 7.14728 4.86696C7.7802 4.26866 8.42256 3.67779 9.08147 3.09576L10.0026 2.2815C10.3174 2.00802 10.64 1.73579 10.9703 1.47468ZM9.11151 8.80006C9.11413 8.79696 9.11683 8.7944 9.11894 8.79182C9.13571 8.77137 9.14781 8.75396 9.13813 8.76743C9.12995 8.77883 9.12015 8.78903 9.11151 8.80006Z"
        fill="#fff" />
</svg>