<svg width="53" height="62" viewBox="0 0 53 62" fill="none" xmlns="http://www.w3.org/2000/svg">
    <path fill-rule="evenodd" clip-rule="evenodd"
        d="M51.1941 13.1192C50.5542 15.1033 44.4975 12.597 43.2446 12.2695C42.1367 16.5265 41.2785 19.8009 40.3395 24.1795C41.2849 24.4581 49.6948 25.3551 49.7991 27.7163C49.9341 30.6031 40.7812 26.7747 39.8661 26.5042C39.0351 30.7569 38.2539 35.021 37.6804 39.3172C39.9416 39.8492 42.2128 40.3729 44.4382 41.0508C49.3707 42.6876 45.4167 43.5915 37.3824 41.646C36.9042 45.4963 36.4698 49.3512 35.9582 53.1972C36.1975 53.2539 48.2829 55.2772 44.791 57.4329C44.7623 57.4468 44.7329 57.46 44.7004 57.4736C42.5948 58.3839 37.7654 56.0402 35.6517 55.5412C35.5023 56.6861 35.4205 62.3342 33.2847 61.9194C31.2868 61.5407 33.1877 56.3125 33.3581 54.9969C29.7266 54.1318 26.0957 53.2637 22.4643 52.398C22.2377 53.7388 22.367 58.6238 20.3087 58.2605C18.309 57.9074 19.9475 53.2289 20.1817 51.8519C16.7293 51.0173 13.6479 50.1495 9.98922 49.0432C9.80344 50.1248 9.83935 53.3657 8.07289 53.0555C6.25225 52.7322 7.54206 49.4575 7.7281 48.36C5.4198 47.6761 3.06359 47.1802 0.776873 46.4171C0.0908521 46.191 -0.046971 45.5721 0.0127179 44.9374C1.98073 45.1224 5.32324 45.2154 8.11509 46.0149C8.68205 42.4993 9.46983 39.0241 10.1234 35.524C8.02055 34.9728 5.91819 34.4199 3.81625 33.8654C3.1061 33.6776 2.9952 32.9907 3.05352 32.3706C3.75758 30.1189 9.34529 32.8758 10.5519 33.1952C11.4273 28.456 12.6288 23.7998 13.5735 19.0775C12.608 18.8444 6.04241 18.3462 6.426 16.2693C6.62868 14.1165 12.8125 16.4565 14.0227 16.7499C14.7179 13.0335 15.3819 9.31261 16.1198 5.6043C14.4307 5.15692 8.19257 4.28496 8.66079 2.50761C9.29255 0.32802 15.258 2.92174 16.5821 3.27498C17.3073 -0.38409 18.0739 -4.03429 18.8031 -7.69246C17.0502 -8.19366 10.2804 -8.62697 10.6333 -10.7308C10.8762 -13.3107 18.0836 -10.3466 19.2873 -10.0031C19.5142 -11.0168 19.9158 -13.7981 21.5177 -13.5023C23.5011 -13.1369 21.7922 -10.4199 21.5511 -9.34066C25.1873 -8.25088 28.8174 -7.14473 32.442 -6.01678C32.6608 -6.90067 32.84 -8.92375 33.7238 -9.54519C36.3061 -11.3392 34.8851 -6.20942 34.6771 -5.33102C37.8693 -4.36484 41.0643 -3.41058 44.2715 -2.50329C44.5308 -3.56498 44.7576 -4.64959 45.177 -5.66245C45.4286 -6.24635 46.1855 -6.47396 46.7301 -6.20912C48.1136 -5.53109 46.7678 -2.87054 46.5248 -1.86648C47.6159 -1.55519 51.6471 -1.09438 52.1011 0.269942C53.1221 3.10935 46.7574 0.646994 45.98 0.424676C45.2386 3.60341 44.568 6.7986 43.8184 9.97532C45.4045 10.3888 51.8354 11.1293 51.1941 13.1192ZM22.9057 38.3353C19.4109 37.5685 15.8816 36.9337 12.4037 36.0946C11.7457 39.6322 10.9512 43.1433 10.3778 46.6961C13.9339 47.7616 17.3733 48.752 20.5938 49.5301C21.2764 45.7781 22.1166 42.0652 22.9057 38.3353ZM25.0802 22.2856C22.0034 21.3971 18.9524 20.4362 15.8487 19.6411C14.8963 24.3674 13.714 29.035 12.8339 33.7782C16.327 34.6267 19.8742 35.26 23.3847 36.035C24.3048 31.5495 25.0204 27.0228 26.015 22.553C25.704 22.464 25.3919 22.3766 25.0802 22.2856ZM26.1954 8.08494C23.3362 7.39196 20.9053 6.77435 18.4064 6.17764C17.6715 9.88507 17.0046 13.6048 16.3004 17.318C19.7423 18.2006 23.1303 19.2584 26.5436 20.243C27.4307 16.4352 28.3847 12.6436 29.2012 8.8222C28.2004 8.57564 27.1987 8.32911 26.1954 8.08494ZM30.6841 -4.10101C27.4912 -5.1121 24.2786 -6.06315 21.0708 -7.02535C20.3506 -3.39578 19.5753 0.222153 18.8638 3.85366C22.4713 4.72382 26.0748 5.61003 29.679 6.49507C30.3502 3.07183 31.1649 -0.31363 31.9132 -3.71978C31.5034 -3.84628 31.0933 -3.97226 30.6841 -4.10101ZM35.0819 41.1148C31.7829 40.3635 28.4991 39.5502 25.192 38.8347C24.3998 42.5797 23.5589 46.3081 22.8743 50.0754C26.4698 50.9294 30.0637 51.7901 33.6578 52.6501C34.1679 48.8088 34.6045 44.9601 35.0819 41.1148ZM37.6107 25.8295C34.5125 24.8996 31.3887 24.0597 28.2732 23.191C27.302 27.6194 26.5868 32.0987 25.6727 36.539C28.918 37.2508 32.143 38.0465 35.382 38.7861C35.9637 34.4413 36.761 30.1289 37.6107 25.8295ZM39.3848 11.2746C36.7546 10.6213 34.1087 10.0204 31.4694 9.37644C30.6434 13.2244 29.6842 17.0417 28.7966 20.8754C31.8997 21.7413 35.0074 22.5876 38.0942 23.5109C38.9743 19.5395 39.961 15.617 40.9814 11.6847C40.4497 11.5475 39.9186 11.4091 39.3848 11.2746ZM43.7219 -0.214032C40.5154 -1.11092 37.3335 -2.07758 34.1556 -3.03622C33.4113 0.326716 32.6213 3.67239 31.9499 7.05173C35.1507 7.82796 38.3596 8.56962 41.5505 9.38709C42.3018 6.195 42.9706 2.98397 43.7219 -0.214032ZM44.7004 57.4736C44.8329 57.4163 44.6507 57.4943 44.7004 57.4736V57.4736Z"
        fill="#fff" />
    <path d="M45.177 -5.66245C45.1884 -5.68989 45.1649 -5.6343 45.177 -5.66245V-5.66245Z"
        fill="#fff" />
    <path d="M44.791 57.4329C44.8167 57.4205 44.7578 57.4535 44.791 57.4329V57.4329Z" fill="#fff" />
</svg>