<svg width="51" height="46" viewBox="0 0 51 46" fill="none" xmlns="http://www.w3.org/2000/svg">
    <path
        d="M24.351 45.928C25.7273 46.3044 26.7021 32.9029 26.8074 31.3032C27.5527 31.6833 28.2175 32.3472 28.8949 32.8372C30.2447 33.8257 41.9701 41.9637 43.0706 40.166C43.3416 39.7233 43.0581 39.1169 42.8636 38.7058C40.5067 33.6039 36.1962 29.4357 32.9607 24.8673C38.4532 23.5032 44.3036 22.4673 49.5443 20.2921C51.2333 19.6486 50.0421 18.6493 48.8049 18.416C43.3377 17.3847 37.772 17.3568 32.2793 16.6084C35.5256 12.8538 38.9251 9.17176 41.7938 5.11623C41.8005 4.57762 42.6954 4.2156 42.3952 3.49376C41.9311 2.3231 29.3568 10.4087 27.9448 11.1832C27.7202 8.05256 27.771 4.92151 27.0735 1.8448C27.0063 1.54425 25.7332 -3.90321 24.9102 -1.18368C23.8723 2.04338 23.2263 5.42408 22.4909 8.73116C22.1466 10.2978 21.6606 11.8382 21.4732 13.4361C17.3314 11.7843 13.3619 9.58645 9.12374 8.20523C8.38744 7.96218 5.79503 7.48636 6.83861 9.11735C9.43841 13.1414 13.2973 16.4845 16.6132 19.845C11.8797 20.0782 5.262 19.4274 0.478842 21.0294C-0.415198 21.387 0.115073 22.1816 0.67863 22.4824C3.76927 24.1104 5.895 24.7262 9.97394 25.5149C11.9191 25.891 14.6028 26.0958 13.8308 26.84C9.90897 30.9726 5.97321 35.3593 2.68998 40.0065C2.10855 40.8458 2.85332 41.3421 3.66469 41.067C9.17487 38.9675 13.9144 34.6083 18.787 31.3467C20.4009 36.1517 21.6883 40.6342 23.7491 45.2671C23.9094 45.6108 24.0557 45.7281 24.351 45.928Z"
        fill="#fff" />
</svg>