<svg width="42" height="42" viewBox="0 0 42 42" fill="none" xmlns="http://www.w3.org/2000/svg">
    <path
        d="M22.752 1.56446C24.0996 0.497098 25.9892 -0.0386555 28.4997 0.00215682C32.5011 0.0625856 35.0025 2.66286 37.7579 5.72089L37.7614 5.72401C37.9717 5.95515 38.0003 6.12124 37.9945 6.24335C37.987 6.39874 37.9137 6.61387 37.7195 6.90115C37.4077 7.36236 36.9585 7.78024 36.491 8.21788L36.0217 8.66492C35.7575 8.92331 35.5428 9.03391 35.379 9.07928C35.2199 9.12332 35.0518 9.12171 34.851 9.0634C34.4014 8.93283 33.8762 8.5493 33.2156 7.93864C32.6243 7.39195 31.8657 6.60088 31.1651 6.01198C30.4457 5.40728 29.5783 4.82169 28.5794 4.68639C27.3336 4.51094 26.1869 4.80471 25.4273 5.63039C24.6724 6.45131 24.4686 7.61589 24.7172 8.83383L24.7171 8.83492C25.3095 11.7134 27.5128 13.6183 29.8387 15.0761C31.0113 15.8111 32.2667 16.4633 33.4298 17.0744C34.6088 17.6939 35.6849 18.2679 36.5703 18.8699L36.5718 18.8706C38.6536 20.2813 40.0388 21.9669 40.7788 23.8706C41.5189 25.7748 41.6384 27.9615 41.0823 30.4152C40.234 34.1361 38.0347 37.0992 35.0421 39.3756L35.0409 39.3766C30.9706 42.4831 25.7374 41.9688 21.8021 38.3616C21.0947 37.7123 20.3921 36.6007 19.6137 35.1997C18.864 33.8501 18.0476 32.2375 17.1643 30.8065C16.2779 29.3706 15.2513 27.9901 14.0001 27.0812C12.7101 26.1441 11.1726 25.7067 9.37841 26.1991L9.37611 26.2L9.04626 26.2964C7.42425 26.798 6.18918 27.5807 5.45603 28.7816C4.67837 30.0555 4.57262 31.6259 4.88826 33.4175C5.06633 34.419 5.77983 35.6985 6.48874 36.7984C7.02859 37.636 7.6195 38.4487 8.10837 39.0882C7.51785 39.5858 6.93585 39.8656 6.38524 39.9903C5.67004 40.1524 4.94467 40.0683 4.23779 39.773C2.79939 39.1721 1.47042 37.703 0.723735 35.8638C-1.08899 31.4024 0.603366 25.9975 4.67151 23.1933L5.04642 22.9467C8.97855 20.4992 14.7159 20.8851 17.9213 23.982C19.6024 25.601 20.6301 27.6287 21.8006 29.7941C22.949 31.9188 24.2274 34.1538 26.4131 35.8527L26.4142 35.8528C27.4097 36.6242 28.4714 36.9184 29.5254 36.8203C30.5552 36.7244 31.5018 36.2624 32.3178 35.6579C33.9373 34.4582 35.2331 32.5579 35.9363 31.0527C36.9421 28.9049 36.8905 27.0346 36.0803 25.4101C35.2992 23.8441 33.8609 22.6044 32.3008 21.5546C30.74 20.5043 28.9243 19.5608 27.3412 18.6681C25.713 17.7501 24.3392 16.8902 23.4671 15.965L23.4661 15.9648L23.0125 15.4672C20.807 12.9622 19.5691 10.1768 20.091 6.81864C20.4855 4.30875 21.4131 2.62509 22.752 1.56446Z"
        fill="#fff" />
</svg>